<?xml version="1.0" standalone="no"?>
<!DOCTYPE svg PUBLIC "-//W3C//DTD SVG 1.1//EN" "http://www.w3.org/Graphics/SVG/1.1/DTD/svg11.dtd">
<svg width="162.0mm" height="1805.90000046847mm"
 viewBox="0 0 162.0 1805.90000046847"
 xmlns="http://www.w3.org/2000/svg" version="1.1"
 xmlns:xlink="http://www.w3.org/1999/xlink">
<desc>Output from Flights of Ideas SVG Sketchup Plugin</desc>

  <path id="face0-cut"
 style="fill:none;stroke:#000000;stroke-width:1;stroke-miterlimit:4;stroke-dasharray:none;stroke-linejoin:round;stroke-linecap:round"
        d="M 43.0,67.0000000000003 L 43.0,65.9000000000003 L 30.3500000000001,65.9000000000003 L 30.3500000000001,24.1 L 43.0,24.1 L 43.0000000000002,23.0000000000001 L 46.0,23.0000000000001 L 46.0,12.9999999999999 L 43.0,13.0 L 43.0,10.0 L 13.0,10.0 L 13.0000000000002,20.0000000000001 L 10.0,20.0000000000002 L 10.0,30.0000000000005 L 13.0000000000002,30.0000000000001 L 13.0000000000002,60.0000000000003 L 10.0,60.0000000000003 L 10.0,70.0000000000005 L 13.0000000000002,70.0000000000002 L 13.0,80.0 L 43.0,80.0 L 43.0,77.0000000000002 L 46.0,77.0000000000001 L 46.0,67.0000000000003 L 43.0,67.0000000000003 M 39.4488887394336,12.6117714323464 L 39.5,13.0000000000002 L 39.4488887394336,13.3882285676541 L 39.2990381056766,13.75 L 39.0606601717798,14.06066017178 L 38.7499999999998,14.299038105677 L 38.3882285676539,14.4488887394338 L 38.0,14.5000000000002 L 37.6117714323461,14.4488887394339 L 37.25,14.2990381056768 L 36.9393398282202,14.0606601717799 L 36.7009618943232,13.7500000000002 L 36.5511112605664,13.3882285676541 L 36.4999999999998,13.0 L 36.5511112605664,12.6117714323465 L 36.7009618943232,12.25 L 36.93933982822,11.9393398282205 L 37.25,11.7009618943234 L 37.6117714323461,11.5511112605665 L 37.9999999999998,11.5000000000006 L 38.3882285676536,11.5511112605665 L 38.7499999999998,11.7009618943234 L 39.0606601717798,11.9393398282202 L 39.2990381056763,12.25 L 39.4488887394336,12.6117714323464 M 16.5511112605664,76.388228567654 L 16.5,76.0000000000003 L 16.5511112605664,75.6117714323465 L 16.7009618943234,75.2500000000005 L 16.9393398282202,74.9393398282207 L 17.2500000000002,74.7009618943239 L 17.6117714323464,74.5511112605666 L 18.0,74.5000000000001 L 18.3882285676539,74.551111260567 L 18.75,74.7009618943235 L 19.06066017178,74.9393398282206 L 19.2990381056768,75.2500000000003 L 19.4488887394339,75.6117714323465 L 19.5,76.0000000000007 L 19.4488887394339,76.388228567654 L 19.2990381056768,76.7500000000003 L 19.06066017178,77.0606601717801 L 18.75,77.2990381056771 L 18.3882285676539,77.448888739434 L 18.0,77.5000000000001 L 17.6117714323464,77.4488887394336 L 17.25,77.2990381056773 L 16.9393398282202,77.0606601717801 L 16.7009618943234,76.7500000000001 L 16.5511112605664,76.388228567654 "
  />
  <path id="face1-cut"
 style="fill:none;stroke:#000000;stroke-width:1;stroke-miterlimit:4;stroke-dasharray:none;stroke-linejoin:round;stroke-linecap:round"
        d="M 13.0,123.0 L 22.9999999999998,123.0 L 22.9999999999998,126.0 L 43.0,126.0 L 43.0,123.0 L 76.5,123.0 L 76.5,121.0 L 75.1999999999998,121.0 L 75.1999999999998,118.8 L 76.5,118.8 L 76.5,115.8 L 79.5,115.8 L 79.5,118.8 L 80.8000000000002,118.8 L 80.8000000000002,121.0 L 79.5,121.0 L 79.5,123.0 L 113.0,123.0 L 113.0,126.0 L 133.0,126.0 L 133.0,123.0 L 143.0,123.0 L 143.0,113.0 L 146.0,113.0 L 146.0,103.0 L 143.0,103.0 L 143.0,92.9999999999999 L 133.0,92.9999999999999 L 133.0,90.0 L 113.0,90.0 L 113.0,92.9999999999999 L 79.5,92.9999999999999 L 79.5,95.0 L 80.8000000000002,95.0 L 80.8000000000002,97.2 L 79.5,97.2 L 79.5,100.2 L 76.5,100.2 L 76.5,97.2 L 75.1999999999998,97.2 L 75.1999999999998,95.0 L 76.5,95.0 L 76.5,92.9999999999999 L 43.0,92.9999999999999 L 43.0,90.0 L 23.0,90.0 L 23.0,92.9999999999999 L 13.0,92.9999999999999 L 13.0,103.0 L 10.0,103.0 L 10.0,113.0 L 13.0,113.0 L 13.0,123.0 "
  />
  <path id="face2-cut"
 style="fill:none;stroke:#000000;stroke-width:1;stroke-miterlimit:4;stroke-dasharray:none;stroke-linejoin:round;stroke-linecap:round"
        d="M 24.6166217670357,174.354561448113 L 26.2798467455445,173.766155818482 L 36.7201532544552,173.766155818482 L 38.3833782329643,174.354561448113 L 39.9816851006356,175.101524412972 L 41.5,176.0 L 53.0,176.0 L 53.0,136.0 L 10.0,136.0 L 10.0,176.0 L 21.5,176.0 L 23.0183148993644,175.101524412972 L 24.6166217670357,174.354561448113 "
  />
  <path id="face3-cut"
 style="fill:none;stroke:#000000;stroke-width:1;stroke-miterlimit:4;stroke-dasharray:none;stroke-linejoin:round;stroke-linecap:round"
        d="M 10.0,236.0 L 67.9009890817943,236.0 L 68.0,226.0 L 73.0000000000002,226.0 L 73.0,186.0 L 10.0,186.0 L 10.0,236.0 M 14.6117714323464,209.551111260567 L 15.0,209.5 L 15.3882285676539,209.551111260567 L 15.75,209.700961894324 L 16.06066017178,209.939339828221 L 16.2990381056768,210.25 L 16.4488887394336,210.611771432347 L 16.5,211.0 L 16.4488887394336,211.388228567654 L 16.2990381056768,211.75 L 16.06066017178,212.06066017178 L 15.7500000000002,212.299038105677 L 15.3882285676539,212.448888739434 L 15.0,212.5 L 14.6117714323464,212.448888739434 L 14.2500000000002,212.299038105677 L 13.9393398282202,212.06066017178 L 13.7009618943234,211.75 L 13.5511112605666,211.388228567654 L 13.5,211.0 L 13.5511112605664,210.611771432347 L 13.7009618943234,210.25 L 13.9393398282202,209.939339828221 L 14.2500000000002,209.700961894324 L 14.6117714323464,209.551111260567 M 67.6117714323464,209.551111260567 L 68.0,209.5 L 68.3882285676539,209.551111260567 L 68.75,209.700961894324 L 69.06066017178,209.939339828221 L 69.2990381056766,210.25 L 69.4488887394336,210.611771432347 L 69.5,211.0 L 69.4488887394336,211.388228567654 L 69.2990381056766,211.75 L 69.06066017178,212.06066017178 L 68.75,212.299038105677 L 68.3882285676539,212.448888739434 L 68.0,212.5 L 67.6117714323464,212.448888739434 L 67.25,212.299038105677 L 66.9393398282202,212.06066017178 L 66.7009618943234,211.75 L 66.5511112605666,211.388228567654 L 66.5,211.0 L 66.5511112605666,210.611771432347 L 66.7009618943232,210.25 L 66.9393398282202,209.939339828221 L 67.25,209.700961894324 L 67.6117714323464,209.551111260567 M 60.0,194.0 L 60.0,228.0 L 23.0,228.0 L 23.0,194.0 L 60.0,194.0 "
  />
  <path id="face4-cut"
 style="fill:none;stroke:#000000;stroke-width:1;stroke-miterlimit:4;stroke-dasharray:none;stroke-linejoin:round;stroke-linecap:round"
        d="M 10.0,296.000000000001 L 73.0,296.000000000001 L 73.0,246.0 L 10.0,246.0 L 10.0,296.000000000001 M 63.0000000000002,291.000000000001 L 51.5,291.000000000001 L 49.9816851006356,291.898475587028 L 48.3833782329643,292.645438551888 L 46.7201532544552,293.233844181518 L 45.0076962744356,293.658143139447 L 43.2621577161819,293.914333802364 L 41.5000000000002,294.000000000001 L 39.7378422838181,293.914333802364 L 37.9923037255644,293.658143139447 L 36.2798467455448,293.233844181518 L 34.6166217670357,292.645438551888 L 33.0183148993647,291.898475587028 L 31.5,291.000000000001 L 20.0000000000002,291.000000000001 L 20.0,251.0 L 63.0000000000002,251.0 L 63.0000000000002,291.000000000001 M 66.5511112605666,271.388228567654 L 66.5,271.000000000001 L 66.5511112605666,270.611771432347 L 66.7009618943234,270.250000000001 L 66.9393398282202,269.939339828221 L 67.25,269.700961894324 L 67.6117714323464,269.551111260567 L 68.0,269.500000000001 L 68.3882285676539,269.551111260567 L 68.75,269.700961894324 L 69.0606601717798,269.939339828221 L 69.2990381056766,270.250000000001 L 69.4488887394336,270.611771432347 L 69.5,271.000000000001 L 69.4488887394336,271.388228567654 L 69.2990381056766,271.750000000001 L 69.0606601717798,272.06066017178 L 68.75,272.299038105677 L 68.3882285676539,272.448888739434 L 68.0,272.500000000001 L 67.6117714323464,272.448888739434 L 67.25,272.299038105677 L 66.9393398282202,272.06066017178 L 66.7009618943234,271.750000000001 L 66.5511112605666,271.388228567654 M 16.4488887394336,270.611771432347 L 16.5,271.000000000001 L 16.4488887394336,271.388228567654 L 16.2990381056766,271.750000000001 L 16.06066017178,272.06066017178 L 15.75,272.299038105677 L 15.3882285676539,272.448888739434 L 15.0,272.500000000001 L 14.6117714323464,272.448888739434 L 14.2500000000002,272.299038105677 L 13.9393398282202,272.06066017178 L 13.7009618943234,271.750000000001 L 13.5511112605666,271.388228567654 L 13.5,271.000000000001 L 13.5511112605666,270.611771432347 L 13.7009618943234,270.250000000001 L 13.9393398282202,269.939339828221 L 14.2500000000002,269.700961894324 L 14.6117714323464,269.551111260567 L 15.0,269.500000000001 L 15.3882285676539,269.551111260567 L 15.75,269.700961894324 L 16.06066017178,269.939339828221 L 16.2990381056766,270.250000000001 L 16.4488887394336,270.611771432347 "
  />
  <path id="face5-cut"
 style="fill:none;stroke:#000000;stroke-width:1;stroke-miterlimit:4;stroke-dasharray:none;stroke-linejoin:round;stroke-linecap:round"
        d="M 10.0,347.199999921548 L 10.0,368.200000000001 L 40.0999996362357,368.200000000001 L 40.0999996362357,358.200000000001 L 43.0,358.200000000001 L 43.0,348.200000000001 L 40.0999996362357,348.200000000001 L 40.0999996362357,309.000000000001 L 30.0999996362355,309.000000000001 L 30.0999996362355,306.000000000001 L 20.0499998181178,306.000000000001 L 20.0499998181178,309.000000000001 L 10.0,309.000000000001 L 10.0,330.999999567686 L 13.0000001155561,330.999999567686 L 13.0,347.199999921548 L 10.0,347.199999921548 M 20.0999996362352,353.200000000001 L 20.0999996362352,350.200000000001 L 30.0999996362355,350.200000000001 L 30.0999996362355,353.200000000001 L 20.0999996362352,353.200000000001 "
  />
  <path id="face6-cut"
 style="fill:none;stroke:#000000;stroke-width:1;stroke-miterlimit:4;stroke-dasharray:none;stroke-linejoin:round;stroke-linecap:round"
        d="M 10.0,428.200000000001 L 73.0,428.200000000001 L 73.0,378.200000000001 L 10.0,378.200000000001 L 10.0,428.200000000001 M 63.0,423.200000000001 L 51.5,423.200000000001 L 49.9816851006356,424.098475587029 L 48.3833782329643,424.845438551889 L 46.7201532544552,425.433844181519 L 45.0076962744356,425.858143139447 L 43.2621577161819,426.114333802365 L 41.5,426.200000000001 L 39.7378422838181,426.114333802365 L 37.9923037255644,425.858143139447 L 36.2798467455448,425.433844181519 L 34.6166217670357,424.845438551889 L 33.0183148993647,424.098475587029 L 31.5,423.200000000001 L 20.0000000000002,423.200000000001 L 20.0,383.200000000001 L 63.0,383.200000000001 L 63.0,423.200000000001 M 66.5511112605666,403.588228567655 L 66.5,403.200000000001 L 66.5511112605666,402.811771432347 L 66.7009618943234,402.450000000001 L 66.9393398282202,402.139339828221 L 67.25,401.900961894324 L 67.6117714323464,401.751111260568 L 68.0,401.700000000001 L 68.3882285676536,401.751111260568 L 68.75,401.900961894324 L 69.0606601717798,402.139339828221 L 69.2990381056766,402.450000000001 L 69.4488887394336,402.811771432347 L 69.5,403.200000000001 L 69.4488887394336,403.588228567655 L 69.2990381056766,403.950000000001 L 69.0606601717798,404.260660171781 L 68.75,404.499038105678 L 68.3882285676536,404.648888739435 L 68.0,404.700000000001 L 67.6117714323464,404.648888739435 L 67.25,404.499038105678 L 66.9393398282202,404.260660171781 L 66.7009618943234,403.950000000001 L 66.5511112605666,403.588228567655 M 16.4488887394336,402.811771432347 L 16.5,403.200000000001 L 16.4488887394336,403.588228567655 L 16.2990381056766,403.950000000001 L 16.06066017178,404.260660171781 L 15.75,404.499038105678 L 15.3882285676539,404.648888739435 L 15.0,404.700000000001 L 14.6117714323464,404.648888739435 L 14.2500000000002,404.499038105678 L 13.9393398282202,404.260660171781 L 13.7009618943234,403.950000000001 L 13.5511112605666,403.588228567655 L 13.5,403.200000000001 L 13.5511112605666,402.811771432347 L 13.7009618943234,402.450000000001 L 13.9393398282202,402.139339828221 L 14.2500000000002,401.900961894324 L 14.6117714323464,401.751111260568 L 15.0,401.700000000001 L 15.3882285676539,401.751111260568 L 15.75,401.900961894324 L 16.06066017178,402.139339828221 L 16.2990381056766,402.450000000001 L 16.4488887394336,402.811771432347 "
  />
  <path id="face7-cut"
 style="fill:none;stroke:#000000;stroke-width:1;stroke-miterlimit:4;stroke-dasharray:none;stroke-linejoin:round;stroke-linecap:round"
        d="M 93.0,441.200000000001 L 72.1825204881645,441.200000000001 L 72.1825204881645,457.400000000002 L 62.1825204881645,457.400000000002 L 62.1825204881645,441.200000000001 L 57.8825204881643,441.200000000001 L 57.8825204881643,438.200000000001 L 47.8825204881641,438.200000000001 L 47.8825204881641,441.200000000001 L 43.5825204881642,441.200000000001 L 43.5825204881642,456.900000000001 L 30.5825204881644,456.900000000001 L 30.5825204881644,441.200000000001 L 13.0,441.200000000001 L 13.0,451.200000000002 L 10.0,451.200000000002 L 10.0,461.200000000001 L 13.0,461.200000000001 L 13.0,471.200000000001 L 53.0000000000002,471.200000000001 L 53.0,474.200000000001 L 73.0,474.200000000001 L 73.0,471.200000000001 L 93.0,471.200000000001 L 93.0,474.200000000001 L 113.0,474.200000000001 L 113.0,471.200000000001 L 130.0,471.200000000001 L 130.0,469.200000000001 L 128.7,469.200000000001 L 128.7,467.000000000002 L 130.0,467.000000000002 L 130.0,464.000000000002 L 133.0,464.000000000002 L 133.0,467.000000000002 L 134.3,467.000000000002 L 134.3,469.200000000001 L 133.0,469.200000000001 L 133.0,471.200000000001 L 143.0,471.200000000001 L 143.0,461.200000000001 L 146.0,461.200000000001 L 146.0,451.200000000002 L 143.0,451.200000000002 L 143.0,441.200000000001 L 133.0,441.200000000001 L 133.0,443.200000000001 L 134.3,443.200000000001 L 134.3,445.400000000001 L 133.0,445.400000000001 L 133.0,448.400000000001 L 130.0,448.400000000001 L 130.0,445.400000000001 L 128.7,445.400000000001 L 128.7,443.200000000001 L 130.0,443.200000000001 L 130.0,441.200000000001 L 113.0,441.200000000001 L 113.0,438.200000000001 L 93.0,438.200000000001 L 93.0,441.200000000001 "
  />
  <path id="face8-cut"
 style="fill:none;stroke:#000000;stroke-width:1;stroke-miterlimit:4;stroke-dasharray:none;stroke-linejoin:round;stroke-linecap:round"
        d="M 42.9999999999998,510.200000000002 L 42.9999999999998,484.200000000001 L 12.9999999999998,484.200000000001 L 12.9999999999998,509.613009643703 L 15.0,509.613009643703 L 15.0,508.313009643703 L 17.2,508.313009643703 L 17.2,509.613009643703 L 20.1999999999998,509.613009643703 L 20.1999999999998,512.613009643703 L 17.2,512.613009643703 L 17.2,513.913009643703 L 15.0,513.913009643703 L 15.0,512.613009643703 L 12.9999999999998,512.613009643703 L 12.9999999999998,523.200000000002 L 10.0,523.200000000002 L 10.0,543.200000000002 L 12.9999999999998,543.200000000002 L 12.9999999999998,596.200000000002 L 15.0,596.200000000002 L 15.0,594.900000000002 L 17.2,594.900000000002 L 17.2,596.200000000002 L 20.1999999999998,596.200000000002 L 20.1999999999998,599.200000000002 L 17.2,599.200000000002 L 17.2,600.500000000002 L 15.0,600.500000000002 L 15.0,599.200000000002 L 12.9999999999998,599.200000000002 L 12.9999999999998,639.200000000002 L 10.0,639.200000000002 L 10.0,659.200000000002 L 12.9999999999998,659.200000000002 L 12.9999999999998,669.200000000002 L 15.0,669.200000000002 L 15.0,667.900000000002 L 17.2,667.900000000002 L 17.2,669.200000000002 L 20.1999999999998,669.200000000002 L 20.1999999999998,672.200000000002 L 17.2,672.200000000002 L 17.2,673.500000000001 L 15.0,673.500000000001 L 15.0,672.200000000002 L 12.9999999999998,672.200000000002 L 12.9999999999998,689.200000000002 L 42.9999999999998,689.200000000002 L 42.9999999999998,672.200000000002 L 41.0,672.200000000002 L 41.0,673.500000000001 L 38.8,673.500000000001 L 38.8,672.200000000002 L 35.8,672.200000000002 L 35.8,669.200000000002 L 38.8,669.200000000002 L 38.8,667.900000000002 L 41.0,667.900000000002 L 41.0,669.200000000002 L 42.9999999999998,669.200000000002 L 42.9999999999998,659.200000000002 L 46.0,659.200000000002 L 46.0,639.200000000002 L 42.9999999999998,639.200000000002 L 42.9999999999998,599.200000000002 L 41.0,599.200000000002 L 41.0,600.500000000001 L 38.8,600.500000000001 L 38.8,599.200000000002 L 35.8,599.200000000002 L 35.8,596.200000000002 L 38.8,596.200000000002 L 38.8,594.900000000001 L 41.0,594.900000000001 L 41.0,596.200000000002 L 42.9999999999998,596.200000000002 L 42.9999999999998,543.200000000002 L 46.0,543.200000000002 L 46.0,523.200000000002 L 42.9999999999998,523.200000000002 L 42.9999999999998,513.200000000002 L 41.0,513.200000000002 L 41.0,514.500000000002 L 38.8,514.500000000002 L 38.8,513.200000000002 L 35.8,513.200000000002 L 35.8,510.200000000002 L 38.8,510.200000000002 L 38.8,508.900000000002 L 41.0,508.900000000002 L 41.0,510.200000000002 L 42.9999999999998,510.200000000002 M 23.0,686.200000000002 L 23.0,683.200000000002 L 33.0,683.200000000002 L 33.0,686.200000000002 L 23.0,686.200000000002 M 23.0,490.200000000002 L 23.0,487.200000000001 L 33.0,487.200000000001 L 33.0,490.200000000002 L 23.0,490.200000000002 M 23.0000000000007,586.200000000002 L 23.0000000000007,583.200000000002 L 32.9999999999998,583.200000000002 L 32.9999999999998,586.200000000002 L 23.0000000000007,586.200000000002 "
  />
  <path id="face9-cut"
 style="fill:none;stroke:#000000;stroke-width:1;stroke-miterlimit:4;stroke-dasharray:none;stroke-linejoin:round;stroke-linecap:round"
        d="M 13.0,722.200000000001 L 13.0,732.200000000002 L 22.9999999999998,732.200000000002 L 22.9999999999998,735.200000000002 L 33.0,735.200000000002 L 33.0,732.200000000002 L 73.0,732.200000000002 L 73.0,735.200000000002 L 83.0,735.200000000002 L 83.0,732.200000000002 L 123.0,732.200000000002 L 123.0,735.200000000002 L 133.0,735.200000000002 L 133.0,732.200000000001 L 143.0,732.200000000001 L 143.0,722.200000000001 L 146.0,722.200000000001 L 146.0,712.200000000001 L 143.0,712.200000000001 L 143.0,702.200000000002 L 133.0,702.200000000002 L 133.0,699.200000000002 L 123.0,699.200000000002 L 123.0,702.200000000002 L 83.0,702.200000000001 L 83.0,699.200000000002 L 73.0,699.200000000002 L 73.0,702.200000000002 L 63.0000000000002,702.200000000002 L 63.0000000000002,710.200000000002 L 43.0,710.200000000002 L 43.0,702.200000000002 L 33.0,702.200000000002 L 33.0,699.200000000002 L 22.9999999999998,699.200000000002 L 22.9999999999998,702.200000000002 L 13.0,702.200000000002 L 13.0,712.200000000001 L 10.0,712.200000000001 L 10.0,722.200000000001 L 13.0,722.200000000001 M 113.2,724.200000000001 L 112.783305247009,724.218185421213 L 112.783305247009,710.218185421212 L 113.2,710.200000000001 L 113.2,724.200000000001 M 122.10001139566,722.200000000001 L 119.100011719618,722.200000000001 L 119.099999938365,712.100000363766 L 122.099999938366,712.100000363766 L 122.10001139566,722.200000000001 M 103.900013812909,722.200000000001 L 103.900000061635,712.100000363766 L 106.900000061635,712.100000363766 L 106.900013373571,722.200000000001 L 103.900013812909,722.200000000001 M 134.299038105677,716.450000000002 L 134.448888739433,716.811771432348 L 134.5,717.200000000001 L 134.448888739433,717.588228567656 L 134.299038105677,717.950000000002 L 134.06066017178,718.260660171782 L 133.75,718.499038105678 L 133.388228567654,718.648888739435 L 133.0,718.700000000002 L 132.611771432346,718.648888739435 L 132.25,718.499038105678 L 131.93933982822,718.260660171781 L 131.700961894323,717.950000000002 L 131.551111260566,717.588228567655 L 131.5,717.200000000001 L 131.551111260566,716.811771432348 L 131.700961894323,716.450000000002 L 131.93933982822,716.139339828222 L 132.25,715.900961894325 L 132.611771432346,715.751111260568 L 133.0,715.700000000002 L 133.388228567654,715.751111260568 L 133.75,715.900961894325 L 134.06066017178,716.139339828221 L 134.299038105677,716.450000000002 M 91.4999999999998,717.700000000002 L 91.5511112605666,717.311771432348 L 91.7009618943234,716.950000000001 L 91.93933982822,716.639339828222 L 92.25,716.400961894325 L 92.6117714323464,716.251111260568 L 93.0000000000002,716.200000000002 L 93.3882285676536,716.251111260568 L 93.75,716.400961894325 L 94.06066017178,716.639339828222 L 94.2990381056766,716.950000000001 L 94.4488887394334,717.311771432348 L 94.4999999999998,717.700000000002 L 94.4488887394334,718.088228567655 L 94.2990381056766,718.450000000001 L 94.06066017178,718.760660171782 L 93.75,718.999038105678 L 93.3882285676536,719.148888739435 L 93.0000000000002,719.200000000002 L 92.6117714323464,719.148888739435 L 92.25,718.999038105678 L 91.93933982822,718.760660171782 L 91.7009618943234,718.450000000001 L 91.5511112605666,718.088228567655 L 91.4999999999998,717.700000000002 "
  />
  <path id="face10-cut"
 style="fill:none;stroke:#000000;stroke-width:1;stroke-miterlimit:4;stroke-dasharray:none;stroke-linejoin:round;stroke-linecap:round"
        d="M 10.0,786.399999921549 L 10.0,807.400000000002 L 40.0999996362357,807.400000000002 L 40.0999996362357,797.400000000002 L 43.0,797.400000000002 L 43.0,787.400000000002 L 40.0999996362357,787.400000000002 L 40.0999996362357,748.200000000002 L 30.0999996362355,748.200000000002 L 30.0999996362355,745.200000000002 L 20.0499998181178,745.200000000002 L 20.0499998181178,748.200000000002 L 10.0,748.200000000002 L 10.0,770.199999567687 L 13.0000001155558,770.199999567687 L 13.0,786.399999921549 L 10.0,786.399999921549 M 20.0999996362352,792.400000000002 L 20.0999996362352,789.400000000001 L 30.0999996362355,789.400000000001 L 30.0999996362355,792.400000000002 L 20.0999996362352,792.400000000002 "
  />
  <path id="face11-cut"
 style="fill:none;stroke:#000000;stroke-width:1;stroke-miterlimit:4;stroke-dasharray:none;stroke-linejoin:round;stroke-linecap:round"
        d="M 10.0,867.400000000002 L 73.0,867.400000000002 L 73.0,817.400000000002 L 10.0,817.400000000002 L 10.0,867.400000000002 M 63.0000000000002,862.400000000002 L 51.5,862.400000000002 L 49.9816851006353,863.29847558703 L 48.3833782329641,864.04543855189 L 46.7201532544552,864.63384418152 L 45.0076962744356,865.058143139448 L 43.2621577161819,865.314333802366 L 41.5,865.400000000002 L 39.7378422838183,865.314333802366 L 37.9923037255644,865.058143139448 L 36.2798467455445,864.63384418152 L 34.6166217670357,864.04543855189 L 33.0183148993642,863.29847558703 L 31.5000000000002,862.400000000002 L 19.9999999999998,862.400000000002 L 19.9999999999998,822.400000000002 L 63.0000000000002,822.400000000002 L 63.0000000000002,862.400000000002 M 66.5511112605664,842.788228567656 L 66.5000000000002,842.400000000002 L 66.5511112605664,842.011771432348 L 66.7009618943234,841.650000000002 L 66.93933982822,841.339339828222 L 67.25,841.100961894326 L 67.6117714323464,840.951111260569 L 67.9999999999998,840.900000000002 L 68.3882285676536,840.951111260569 L 68.75,841.100961894326 L 69.0606601717795,841.339339828222 L 69.2990381056766,841.650000000002 L 69.4488887394334,842.011771432348 L 69.5000000000002,842.400000000002 L 69.4488887394334,842.788228567656 L 69.2990381056766,843.150000000002 L 69.0606601717795,843.460660171782 L 68.75,843.699038105679 L 68.3882285676536,843.848888739436 L 67.9999999999998,843.900000000002 L 67.6117714323464,843.848888739436 L 67.25,843.699038105679 L 66.93933982822,843.460660171782 L 66.7009618943234,843.150000000002 L 66.5511112605664,842.788228567656 M 16.4488887394336,842.011771432348 L 16.5,842.400000000002 L 16.4488887394336,842.788228567656 L 16.2990381056766,843.150000000002 L 16.0606601717798,843.460660171782 L 15.7499999999998,843.699038105679 L 15.3882285676539,843.848888739436 L 15.0,843.900000000002 L 14.6117714323461,843.848888739436 L 14.25,843.699038105679 L 13.9393398282202,843.460660171782 L 13.7009618943232,843.150000000002 L 13.5511112605666,842.788228567656 L 13.5,842.400000000002 L 13.5511112605661,842.011771432348 L 13.7009618943232,841.650000000002 L 13.9393398282202,841.339339828222 L 14.25,841.100961894326 L 14.6117714323461,840.951111260569 L 15.0,840.900000000002 L 15.3882285676539,840.951111260569 L 15.75,841.100961894326 L 16.0606601717798,841.339339828222 L 16.2990381056766,841.650000000002 L 16.4488887394336,842.011771432348 "
  />
  <path id="face12-cut"
 style="fill:none;stroke:#000000;stroke-width:1;stroke-miterlimit:4;stroke-dasharray:none;stroke-linejoin:round;stroke-linecap:round"
        d="M 10.0,927.400000000003 L 73.0,927.400000000003 L 73.0,877.400000000002 L 10.0,877.400000000002 L 10.0,927.400000000003 M 62.9999999999998,922.400000000002 L 51.5,922.400000000003 L 49.9816851006353,923.29847558703 L 48.3833782329643,924.04543855189 L 46.7201532544552,924.63384418152 L 45.0076962744356,925.058143139449 L 43.2621577161819,925.314333802366 L 41.5,925.400000000003 L 39.7378422838181,925.314333802366 L 37.9923037255644,925.058143139449 L 36.2798467455448,924.63384418152 L 34.6166217670357,924.04543855189 L 33.0183148993644,923.29847558703 L 31.5,922.400000000003 L 20.0,922.400000000003 L 19.9999999999998,882.400000000002 L 62.9999999999998,882.400000000002 L 62.9999999999998,922.400000000002 M 66.5511112605664,902.788228567656 L 66.4999999999998,902.400000000002 L 66.5511112605664,902.011771432349 L 66.7009618943234,901.650000000003 L 66.9393398282202,901.339339828223 L 67.25,901.100961894326 L 67.6117714323461,900.951111260569 L 68.0000000000002,900.900000000002 L 68.3882285676536,900.951111260569 L 68.75,901.100961894326 L 69.06066017178,901.339339828223 L 69.2990381056766,901.650000000003 L 69.4488887394334,902.011771432349 L 69.4999999999998,902.400000000002 L 69.4488887394334,902.788228567656 L 69.2990381056766,903.150000000003 L 69.06066017178,903.460660171782 L 68.75,903.699038105679 L 68.3882285676536,903.848888739436 L 68.0000000000002,903.900000000002 L 67.6117714323461,903.848888739436 L 67.25,903.699038105679 L 66.9393398282202,903.460660171782 L 66.7009618943234,903.150000000003 L 66.5511112605664,902.788228567656 M 16.4488887394336,902.011771432349 L 16.5,902.400000000002 L 16.4488887394336,902.788228567656 L 16.2990381056766,903.150000000003 L 16.06066017178,903.460660171782 L 15.75,903.699038105679 L 15.3882285676539,903.848888739436 L 15.0,903.900000000002 L 14.6117714323461,903.848888739436 L 14.25,903.699038105679 L 13.9393398282202,903.460660171782 L 13.7009618943234,903.150000000003 L 13.5511112605664,902.788228567656 L 13.5,902.400000000002 L 13.5511112605664,902.011771432349 L 13.7009618943234,901.650000000003 L 13.9393398282202,901.339339828223 L 14.25,901.100961894326 L 14.6117714323461,900.951111260569 L 15.0,900.900000000002 L 15.3882285676539,900.951111260569 L 15.75,901.100961894326 L 16.06066017178,901.339339828223 L 16.2990381056766,901.650000000003 L 16.4488887394336,902.011771432349 "
  />
  <path id="face13-cut"
 style="fill:none;stroke:#000000;stroke-width:1;stroke-miterlimit:4;stroke-dasharray:none;stroke-linejoin:round;stroke-linecap:round"
        d="M 10.0,1142.4 L 152.0,1142.4 L 152.0,937.400000000003 L 10.0,937.400000000003 L 10.0,1142.4 M 74.6275204881645,1119.39230164029 L 74.9917037300597,1119.24145200231 L 75.3825204881646,1119.19 L 75.7733372462692,1119.24145200231 L 76.1375204881645,1119.39230164029 L 76.450251727756,1119.63226876041 L 76.6902188478789,1119.945 L 76.8410684858607,1120.3091832419 L 76.8925204881646,1120.7 L 76.8410684858611,1121.09081675811 L 76.6902188478789,1121.455 L 76.4502517277565,1121.7677312396 L 76.1375204881645,1122.00769835972 L 75.7733372462692,1122.1585479977 L 75.3825204881646,1122.21 L 74.9917037300597,1122.1585479977 L 74.6275204881645,1122.00769835972 L 74.3147892485727,1121.7677312396 L 74.0748221284503,1121.455 L 73.923972490468,1121.09081675811 L 73.8725204881646,1120.7 L 73.923972490468,1120.3091832419 L 74.0748221284503,1119.945 L 74.3147892485727,1119.63226876041 L 74.6275204881645,1119.39230164029 M 70.1375204881651,1071.90769835972 L 69.7733372462699,1072.0585479977 L 69.3825204881653,1072.11 L 68.9917037300604,1072.0585479977 L 68.6275204881651,1071.90769835972 L 68.3147892485736,1071.6677312396 L 68.0748221284507,1071.355 L 67.9239724904685,1070.99081675811 L 67.8725204881653,1070.6 L 67.9239724904685,1070.2091832419 L 68.0748221284507,1069.845 L 68.3147892485733,1069.53226876041 L 68.6275204881651,1069.29230164029 L 68.9917037300604,1069.14145200231 L 69.3825204881653,1069.09 L 69.7733372462699,1069.14145200231 L 70.1375204881651,1069.29230164029 L 70.4502517277567,1069.53226876041 L 70.6902188478796,1069.845 L 70.8410684858613,1070.2091832419 L 70.892520488165,1070.6 L 70.8410684858613,1070.99081675811 L 70.6902188478798,1071.355 L 70.4502517277572,1071.6677312396 L 70.1375204881651,1071.90769835972 M 41.525021797049,1068.79002184727 L 41.9155561263765,1068.84357541459 L 42.278922637968,1068.99638191056 L 42.590358504551,1069.238027825 L 42.8286398864896,1069.55204538816 L 42.9775283013832,1069.91703482208 L 43.0268772498073,1070.30812269998 L 42.9733236824786,1070.69865702931 L 42.8205171865097,1071.0620235409 L 42.5788712720766,1071.37345940748 L 42.2648537089085,1071.61174078942 L 41.8998642749968,1071.76062920432 L 41.5087763970894,1071.80997815274 L 41.1182420677624,1071.75642458541 L 40.7548755561706,1071.60361808944 L 40.4434396895879,1071.36197217501 L 40.2051583076491,1071.04795461184 L 40.0562698927552,1070.68296517793 L 40.0069209443316,1070.29187730002 L 40.0604745116602,1069.9013429707 L 40.2132810076289,1069.5379764591 L 40.4549269220624,1069.22654059252 L 40.7689444852304,1068.98825921058 L 41.133933919142,1068.83937079569 L 41.525021797049,1068.79002184727 M 28.5902188478792,1119.345 L 28.741068485861,1119.7091832419 L 28.7925204881647,1120.1 L 28.7410684858612,1120.49081675811 L 28.5902188478792,1120.855 L 28.3502517277564,1121.16773123959 L 28.0375204881645,1121.40769835972 L 27.6733372462693,1121.5585479977 L 27.2825204881647,1121.61 L 26.8917037300598,1121.5585479977 L 26.5275204881646,1121.40769835972 L 26.214789248573,1121.16773123959 L 25.9748221284501,1120.855 L 25.8239724904681,1120.49081675811 L 25.7725204881644,1120.1 L 25.8239724904681,1119.7091832419 L 25.9748221284499,1119.345 L 26.2147892485727,1119.03226876041 L 26.5275204881646,1118.79230164029 L 26.8917037300598,1118.64145200231 L 27.2825204881647,1118.59 L 27.6733372462693,1118.64145200231 L 28.0375204881645,1118.79230164029 L 28.3502517277564,1119.03226876041 L 28.5902188478792,1119.345 M 149.0,996.400000000003 L 146.0,996.400000000003 L 146.0,976.400000000003 L 149.0,976.400000000003 L 149.0,996.400000000003 M 116.0,1136.4 L 116.0,1139.4 L 95.9999999999998,1139.4 L 95.9999999999998,1136.4 L 116.0,1136.4 M 50.8825204881643,1136.4 L 60.8825204881646,1136.4 L 60.8825204881646,1139.4 L 50.8825204881643,1139.4 L 50.8825204881643,1136.4 M 121.099999938365,1092.59999987673 L 110.900000061634,1092.59999987673 L 110.900000061634,1089.59999987673 L 121.099999938365,1089.59999987673 L 121.099999938365,1092.59999987673 M 126.0,1036.4 L 136.0,1036.4 L 136.0,1039.4 L 126.0,1039.4 L 126.0,1036.4 M 16.0,1092.4 L 16.0,1112.4 L 13.0,1112.4 L 13.0,1092.4 L 16.0,1092.4 M 35.9999999999998,1036.4 L 36.0000000000002,1039.4 L 26.0,1039.4 L 26.0,1036.4 L 35.9999999999998,1036.4 M 86.0,1036.4 L 86.0,1039.4 L 76.0,1039.4 L 76.0,1036.4 L 86.0,1036.4 M 136.0,943.400000000003 L 116.0,943.400000000003 L 116.0,940.400000000003 L 136.0,940.400000000003 L 136.0,943.400000000003 M 46.0,943.400000000003 L 26.0,943.400000000003 L 26.0,940.400000000003 L 46.0,940.400000000003 L 46.0,943.400000000003 M 13.0,996.400000000003 L 13.0,976.400000000003 L 16.0,976.400000000003 L 16.0,996.400000000003 L 13.0,996.400000000003 M 57.1128920892559,981.500744970128 L 50.0418242773912,988.571812781995 L 47.9205039338315,986.450492438436 L 54.9915717456959,979.379424626569 L 57.1128920892559,981.500744970128 M 85.3971633367141,953.216473722663 L 78.3260955248497,960.287541534529 L 76.2047751812897,958.16622119097 L 83.2758429931541,951.095153379104 L 85.3971633367141,953.216473722663 M 14.8882285676536,966.348888739436 L 14.5,966.400000000003 L 14.1117714323461,966.348888739436 L 13.75,966.199038105679 L 13.4393398282202,965.960660171783 L 13.2009618943234,965.650000000003 L 13.0511112605664,965.288228567656 L 13.0,964.900000000003 L 13.0511112605664,964.511771432349 L 13.2009618943232,964.150000000003 L 13.4393398282202,963.839339828223 L 13.75,963.600961894326 L 14.1117714323461,963.451111260569 L 14.5,963.400000000003 L 14.8882285676536,963.451111260569 L 15.25,963.600961894326 L 15.5606601717798,963.839339828223 L 15.7990381056768,964.150000000003 L 15.9488887394336,964.511771432349 L 16.0,964.900000000003 L 15.9488887394336,965.288228567656 L 15.7990381056768,965.650000000003 L 15.5606601717798,965.960660171783 L 15.25,966.199038105679 L 14.8882285676536,966.348888739436 M 79.5511112605664,942.288228567656 L 79.5,941.900000000003 L 79.5511112605664,941.511771432349 L 79.7009618943232,941.150000000003 L 79.9393398282202,940.839339828223 L 80.2499999999998,940.600961894326 L 80.6117714323461,940.451111260569 L 81.0,940.400000000003 L 81.3882285676536,940.451111260569 L 81.7499999999998,940.600961894326 L 82.0606601717798,940.839339828223 L 82.2990381056763,941.150000000003 L 82.4488887394334,941.511771432349 L 82.5,941.900000000003 L 82.4488887394334,942.288228567656 L 82.2990381056763,942.650000000003 L 82.0606601717798,942.960660171782 L 81.7499999999998,943.199038105679 L 81.3882285676536,943.348888739436 L 81.0,943.400000000003 L 80.6117714323461,943.348888739436 L 80.2499999999998,943.199038105679 L 79.9393398282202,942.960660171782 L 79.7009618943232,942.650000000003 L 79.5511112605664,942.288228567656 M 147.86573318499,965.761898383138 L 147.477504617337,965.813009643704 L 147.089276049683,965.761898383138 L 146.727504617337,965.612047749381 L 146.416844445557,965.373669815484 L 146.17846651166,965.063009643704 L 146.028615877903,964.701238211358 L 145.977504617337,964.313009643704 L 146.028615877903,963.924781076051 L 146.17846651166,963.563009643704 L 146.416844445557,963.252349471925 L 146.727504617337,963.013971538028 L 147.089276049683,962.864120904271 L 147.477504617337,962.813009643704 L 147.865733184991,962.864120904271 L 148.227504617337,963.013971538028 L 148.538164789117,963.252349471925 L 148.776542723014,963.563009643704 L 148.92639335677,963.924781076051 L 148.977504617337,964.313009643704 L 148.92639335677,964.701238211358 L 148.776542723013,965.063009643704 L 148.538164789117,965.373669815484 L 148.227504617337,965.612047749381 L 147.86573318499,965.761898383138 M 147.888228567654,1052.34888873944 L 147.5,1052.4 L 147.111771432346,1052.34888873944 L 146.75,1052.19903810568 L 146.43933982822,1051.96066017178 L 146.200961894323,1051.65 L 146.051111260566,1051.28822856766 L 146.0,1050.9 L 146.051111260566,1050.51177143235 L 146.200961894323,1050.15 L 146.43933982822,1049.83933982822 L 146.75,1049.60096189433 L 147.111771432346,1049.45111126057 L 147.5,1049.4 L 147.888228567654,1049.45111126057 L 148.25,1049.60096189433 L 148.56066017178,1049.83933982822 L 148.799038105677,1050.15 L 148.948888739433,1050.51177143235 L 149.0,1050.9 L 148.948888739433,1051.28822856766 L 148.799038105677,1051.65 L 148.56066017178,1051.96066017178 L 148.25,1052.19903810568 L 147.888228567654,1052.34888873944 M 133.051111260566,1138.28822856766 L 133.0,1137.9 L 133.051111260566,1137.51177143235 L 133.200961894323,1137.15 L 133.43933982822,1136.83933982822 L 133.75,1136.60096189433 L 134.111771432346,1136.45111126057 L 134.5,1136.4 L 134.888228567654,1136.45111126057 L 135.25,1136.60096189433 L 135.56066017178,1136.83933982822 L 135.799038105677,1137.15 L 135.948888739433,1137.51177143235 L 136.0,1137.9 L 135.948888739433,1138.28822856766 L 135.799038105677,1138.65 L 135.56066017178,1138.96066017178 L 135.25,1139.19903810568 L 134.888228567654,1139.34888873944 L 134.5,1139.4 L 134.111771432346,1139.34888873944 L 133.75,1139.19903810568 L 133.43933982822,1138.96066017178 L 133.200961894323,1138.65 L 133.051111260566,1138.28822856766 M 14.1117714323461,1122.45111126057 L 14.5,1122.4 L 14.8882285676536,1122.45111126057 L 15.25,1122.60096189433 L 15.5606601717798,1122.83933982822 L 15.7990381056768,1123.15 L 15.9488887394336,1123.51177143235 L 16.0,1123.9 L 15.9488887394336,1124.28822856766 L 15.7990381056766,1124.65 L 15.5606601717798,1124.96066017178 L 15.25,1125.19903810568 L 14.8882285676536,1125.34888873944 L 14.5,1125.4 L 14.1117714323461,1125.34888873944 L 13.75,1125.19903810568 L 13.4393398282202,1124.96066017178 L 13.2009618943232,1124.65 L 13.0511112605664,1124.28822856766 L 13.0,1123.9 L 13.0511112605664,1123.51177143235 L 13.2009618943234,1123.15 L 13.4393398282202,1122.83933982822 L 13.75,1122.60096189433 L 14.1117714323461,1122.45111126057 M 14.8882285676536,1052.34888873944 L 14.5,1052.4 L 14.1117714323464,1052.34888873944 L 13.75,1052.19903810568 L 13.4393398282202,1051.96066017178 L 13.2009618943232,1051.65 L 13.0511112605664,1051.28822856766 L 13.0,1050.9 L 13.0511112605664,1050.51177143235 L 13.2009618943234,1050.15 L 13.4393398282202,1049.83933982822 L 13.75,1049.60096189433 L 14.1117714323464,1049.45111126057 L 14.5,1049.4 L 14.8882285676536,1049.45111126057 L 15.25,1049.60096189433 L 15.5606601717798,1049.83933982822 L 15.7990381056768,1050.15 L 15.9488887394334,1050.51177143235 L 16.0,1050.9 L 15.9488887394334,1051.28822856766 L 15.7990381056768,1051.65 L 15.5606601717798,1051.96066017178 L 15.25,1052.19903810568 L 14.8882285676536,1052.34888873944 M 129.488228741833,1066.55111110076 L 129.850000169558,1066.70096174568 L 130.160660333987,1066.93933968915 L 130.399038258304,1067.24999986828 L 130.548888880904,1067.61177130525 L 130.600000129499,1067.99999987448 L 130.54888885696,1068.38822844056 L 130.399038212047,1068.74999986828 L 130.16066026857,1069.06066003271 L 129.850000089439,1069.29903795703 L 129.488228652471,1069.44888857963 L 129.100000083242,1069.49999982822 L 128.711771517164,1069.44888855569 L 128.350000089439,1069.29903791077 L 128.03933992501,1069.0606599673 L 127.800962000694,1068.74999978817 L 127.651111378093,1068.3882283512 L 127.600000129499,1067.99999978197 L 127.651111402037,1067.61177121589 L 127.80096204695,1067.24999978817 L 128.039339990427,1066.93933962374 L 128.350000169558,1066.70096169942 L 128.711771606526,1066.55111107682 L 129.100000175755,1066.49999982822 L 129.488228741833,1066.55111110076 M 101.600963077182,1068.74999852073 L 101.451112443425,1068.38822708839 L 101.400001182858,1067.99999852073 L 101.451112443425,1067.61176995308 L 101.600963077182,1067.24999852073 L 101.839341011078,1066.93933834895 L 102.150001182858,1066.70096041506 L 102.511772615205,1066.5511097813 L 102.900001182858,1066.49999852073 L 103.288229750512,1066.5511097813 L 103.650001182858,1066.70096041506 L 103.960661354638,1066.93933834895 L 104.199039288535,1067.24999852073 L 104.348889922292,1067.61176995308 L 104.400001182858,1067.99999852073 L 104.348889922292,1068.38822708839 L 104.199039288535,1068.74999852073 L 103.960661354638,1069.06065869251 L 103.650001182858,1069.29903662641 L 103.288229750512,1069.44888726017 L 102.900001182858,1069.49999852073 L 102.511772615205,1069.44888726017 L 102.150001182858,1069.29903662641 L 101.839341011078,1069.06065869251 L 101.600963077182,1068.74999852073 M 149.0,1092.4 L 149.0,1112.4 L 146.0,1112.4 L 146.0,1092.4 L 149.0,1092.4 M 147.111771432346,1122.45111126057 L 147.5,1122.4 L 147.888228567654,1122.45111126057 L 148.25,1122.60096189433 L 148.56066017178,1122.83933982822 L 148.799038105676,1123.15 L 148.948888739433,1123.51177143235 L 149.0,1123.9 L 148.948888739433,1124.28822856766 L 148.799038105677,1124.65 L 148.56066017178,1124.96066017178 L 148.25,1125.19903810568 L 147.888228567654,1125.34888873944 L 147.5,1125.4 L 147.111771432346,1125.34888873944 L 146.75,1125.19903810568 L 146.43933982822,1124.96066017178 L 146.200961894323,1124.65 L 146.051111260566,1124.28822856766 L 146.0,1123.9 L 146.051111260566,1123.51177143235 L 146.200961894323,1123.15 L 146.43933982822,1122.83933982822 L 146.75,1122.60096189433 L 147.111771432346,1122.45111126057 "
  />
  <path id="face14-cut"
 style="fill:none;stroke:#000000;stroke-width:1;stroke-miterlimit:4;stroke-dasharray:none;stroke-linejoin:round;stroke-linecap:round"
        d="M 25.199999876731,1170.44999981812 L 25.199999876731,1155.4 L 24.199999876731,1155.4 L 24.199999876731,1152.4 L 14.0,1152.4 L 14.0,1155.4 L 13.0,1155.4 L 13.0,1170.44999981812 L 10.0,1170.44999981812 L 10.0,1185.49999963624 L 28.199999876731,1185.49999963624 L 28.199999876731,1170.44999981812 L 25.199999876731,1170.44999981812 M 21.3648144424537,1169.80295220536 L 21.449999876731,1170.44999981812 L 21.3648144424537,1171.09704743088 L 21.1150633861921,1171.69999981812 L 20.7177668296972,1172.21776677109 L 20.199999876731,1172.61506332758 L 19.5970474894873,1172.86481438384 L 18.949999876731,1172.94999981812 L 18.3029522639747,1172.86481438384 L 17.699999876731,1172.61506332758 L 17.1822329237648,1172.21776677109 L 16.7849363672699,1171.69999981812 L 16.5351853110083,1171.09704743088 L 16.449999876731,1170.44999981812 L 16.5351853110083,1169.80295220536 L 16.7849363672699,1169.19999981812 L 17.1822329237648,1168.68223286515 L 17.699999876731,1168.28493630866 L 18.3029522639747,1168.0351852524 L 18.949999876731,1167.94999981812 L 19.5970474894873,1168.0351852524 L 20.199999876731,1168.28493630866 L 20.7177668296972,1168.68223286515 L 21.1150633861921,1169.19999981812 L 21.3648144424537,1169.80295220536 "
  />
  <path id="face15-cut"
 style="fill:none;stroke:#000000;stroke-width:1;stroke-miterlimit:4;stroke-dasharray:none;stroke-linejoin:round;stroke-linecap:round"
        d="M 70.0,1195.49999963624 L 10.0,1195.49999963624 L 10.0,1225.49999963624 L 70.0,1225.49999963624 L 70.0,1195.49999963624 M 34.9833052470094,1219.49999963624 L 34.9833052470094,1200.49999963624 L 45.0,1200.49999963624 L 45.0,1219.49999963624 L 34.9833052470094,1219.49999963624 M 19.6117714323464,1208.5511108968 L 20.0,1208.49999963624 L 20.3882285676539,1208.5511108968 L 20.75,1208.70096153056 L 21.06066017178,1208.93933946446 L 21.2990381056766,1209.24999963624 L 21.4488887394336,1209.61177106858 L 21.5000000000002,1209.99999963624 L 21.4488887394336,1210.38822820389 L 21.2990381056766,1210.74999963624 L 21.0606601717798,1211.06065980802 L 20.75,1211.29903774192 L 20.3882285676539,1211.44888837567 L 20.0,1211.49999963624 L 19.6117714323464,1211.44888837567 L 19.25,1211.29903774192 L 18.93933982822,1211.06065980802 L 18.7009618943234,1210.74999963624 L 18.5511112605666,1210.38822820389 L 18.5000000000002,1209.99999963624 L 18.5511112605666,1209.61177106858 L 18.7009618943234,1209.24999963624 L 18.93933982822,1208.93933946446 L 19.25,1208.70096153056 L 19.6117714323464,1208.5511108968 M 58.5000000000002,1210.49999963624 L 58.5511112605666,1210.11177106858 L 58.7009618943239,1209.74999963624 L 58.9393398282205,1209.43933946446 L 59.2500000000005,1209.20096153056 L 59.6117714323464,1209.05111089681 L 60.0000000000002,1208.99999963624 L 60.3882285676541,1209.05111089681 L 60.75,1209.20096153056 L 61.06066017178,1209.43933946446 L 61.2990381056766,1209.74999963624 L 61.4488887394336,1210.11177106858 L 61.4999999999998,1210.49999963624 L 61.4488887394336,1210.88822820389 L 61.2990381056766,1211.24999963624 L 61.06066017178,1211.56065980802 L 60.75,1211.79903774192 L 60.3882285676536,1211.94888837567 L 59.9999999999998,1211.99999963624 L 59.6117714323464,1211.94888837567 L 59.2500000000005,1211.79903774192 L 58.9393398282205,1211.56065980802 L 58.7009618943234,1211.24999963624 L 58.5511112605666,1210.88822820389 L 58.5000000000002,1210.49999963624 "
  />
  <path id="face16-cut"
 style="fill:none;stroke:#000000;stroke-width:1;stroke-miterlimit:4;stroke-dasharray:none;stroke-linejoin:round;stroke-linecap:round"
        d="M 40.0,1305.49999963624 L 40.0,1291.39999963624 L 31.3500000000004,1291.39999963624 L 31.3500000000004,1301.39999963624 L 18.6500000000003,1301.39999963624 L 18.6500000000003,1239.59999963624 L 31.3500000000004,1239.59999963624 L 31.3500000000004,1249.59999963624 L 40.0,1249.59999963624 L 40.0,1235.49999963624 L 10.0000000000002,1235.49999963624 L 10.0,1305.49999963624 L 40.0,1305.49999963624 M 13.5511112605666,1301.88822820389 L 13.5000000000002,1301.49999963624 L 13.5511112605666,1301.11177106858 L 13.7009618943237,1300.74999963624 L 13.9393398282205,1300.43933946446 L 14.2500000000002,1300.20096153056 L 14.6117714323466,1300.05111089681 L 15.0000000000002,1299.99999963624 L 15.3882285676539,1300.05111089681 L 15.7500000000002,1300.20096153056 L 16.06066017178,1300.43933946446 L 16.2990381056768,1300.74999963624 L 16.4488887394336,1301.11177106859 L 16.5000000000002,1301.49999963624 L 16.4488887394336,1301.88822820389 L 16.2990381056768,1302.24999963624 L 16.06066017178,1302.56065980802 L 15.7500000000002,1302.79903774192 L 15.3882285676539,1302.94888837567 L 15.0,1302.99999963624 L 14.6117714323466,1302.94888837567 L 14.2500000000002,1302.79903774192 L 13.9393398282202,1302.56065980802 L 13.7009618943237,1302.24999963624 L 13.5511112605666,1301.88822820389 M 36.5000000000002,1238.49999963624 L 36.4488887394339,1238.88822820389 L 36.299038105677,1239.24999963624 L 36.06066017178,1239.56065980802 L 35.7500000000002,1239.79903774192 L 35.3882285676541,1239.94888837567 L 35.0000000000002,1239.99999963624 L 34.6117714323464,1239.94888837567 L 34.2500000000002,1239.79903774192 L 33.9393398282205,1239.56065980802 L 33.7009618943234,1239.24999963624 L 33.5511112605666,1238.88822820389 L 33.5000000000002,1238.49999963624 L 33.5511112605666,1238.11177106858 L 33.7009618943237,1237.74999963624 L 33.9393398282205,1237.43933946446 L 34.2500000000002,1237.20096153056 L 34.6117714323464,1237.05111089681 L 35.0000000000002,1236.99999963624 L 35.3882285676541,1237.05111089681 L 35.75,1237.20096153056 L 36.06066017178,1237.43933946446 L 36.2990381056768,1237.74999963624 L 36.4488887394336,1238.11177106858 L 36.5000000000002,1238.49999963624 "
  />
  <path id="face17-cut"
 style="fill:none;stroke:#000000;stroke-width:1;stroke-miterlimit:4;stroke-dasharray:none;stroke-linejoin:round;stroke-linecap:round"
        d="M 20.049999742766,1333.69999963498 L 30.099999560884,1333.69999963498 L 30.0999996362359,1330.69999988741 L 40.0999996362355,1330.70000013858 L 40.0999999488299,1318.50000013858 L 30.0999999488297,1318.49999988741 L 30.1000000203255,1315.49999988741 L 20.1000000203255,1315.49999963624 L 20.0999999411331,1318.49999963624 L 10.0000003048974,1318.49999938255 L 10.0,1330.69999938255 L 20.0499998181178,1330.69999963498 L 20.049999742766,1333.69999963498 M 25.8639568974447,1327.49777725988 L 25.0874997595697,1327.59999976151 L 24.3110426268297,1327.49777722088 L 23.5874997696649,1327.19807593519 L 22.9661794380802,1326.72132005179 L 22.4894235858924,1326.09999969625 L 22.1897223365522,1325.37645682403 L 22.0874998349218,1324.59999968616 L 22.189722375557,1323.82354255342 L 22.489423661244,1323.09999969625 L 22.9661795446436,1322.47867936467 L 23.5874999001785,1322.00192351248 L 24.3110427723987,1321.70222226314 L 25.0874999102734,1321.59999976151 L 25.8639570430134,1321.70222230215 L 26.587499900178,1322.00192358783 L 27.2088202317627,1322.47867947123 L 27.6855760839508,1323.09999982677 L 27.9852773332912,1323.82354269899 L 28.0874998349213,1324.59999983686 L 27.9852772942863,1325.3764569696 L 27.6855760085987,1326.09999982677 L 27.2088201251995,1326.72132015835 L 26.5874997696649,1327.19807601054 L 25.8639568974447,1327.49777725988 "
  />
  <path id="face18-cut"
 style="fill:none;stroke:#000000;stroke-width:1;stroke-miterlimit:4;stroke-dasharray:none;stroke-linejoin:round;stroke-linecap:round"
        d="M 43.0,1369.69999963498 L 43.0,1343.69999963498 L 13.0,1343.69999963498 L 13.0,1369.11300927868 L 15.0,1369.11300927868 L 15.0,1367.81300927868 L 17.2,1367.81300927868 L 17.2,1369.11300927868 L 20.2,1369.11300927868 L 20.2,1372.11300927868 L 17.2,1372.11300927868 L 17.2,1373.41300927868 L 15.0,1373.41300927868 L 15.0,1372.11300927868 L 13.0,1372.11300927868 L 13.0,1382.69999963498 L 10.0,1382.69999963498 L 10.0,1402.69999963498 L 13.0,1402.69999963498 L 13.0000000000002,1455.69999963498 L 15.0,1455.69999963498 L 15.0,1454.39999963498 L 17.2,1454.39999963498 L 17.1999999999998,1455.69999963498 L 20.2,1455.69999963498 L 20.2,1458.69999963498 L 17.2,1458.69999963498 L 17.2,1459.99999963498 L 15.0,1459.99999963498 L 15.0,1458.69999963498 L 13.0000000000002,1458.69999963498 L 13.0,1498.69999963498 L 10.0,1498.69999963498 L 10.0,1518.69999963498 L 13.0,1518.69999963498 L 13.0,1528.69999963498 L 15.0,1528.69999963498 L 15.0,1527.39999963498 L 17.1999999999998,1527.39999963498 L 17.1999999999998,1528.69999963498 L 20.2,1528.69999963498 L 20.2,1531.69999963498 L 17.1999999999998,1531.69999963498 L 17.2,1532.99999963498 L 15.0,1532.99999963498 L 15.0,1531.69999963498 L 13.0000000000002,1531.69999963498 L 13.0000000000002,1548.69999963498 L 43.0,1548.69999963498 L 43.0,1531.69999963498 L 41.0,1531.69999963498 L 41.0,1532.99999963498 L 38.8,1532.99999963498 L 38.8,1531.69999963498 L 35.8,1531.69999963498 L 35.8,1528.69999963498 L 38.8,1528.69999963498 L 38.8,1527.39999963498 L 41.0,1527.39999963498 L 41.0,1528.69999963498 L 43.0,1528.69999963498 L 43.0,1518.69999963498 L 46.0,1518.69999963498 L 46.0,1498.69999963498 L 43.0,1498.69999963498 L 43.0,1458.69999963498 L 41.0,1458.69999963498 L 41.0,1459.99999963498 L 38.8,1459.99999963498 L 38.8,1458.69999963498 L 35.8,1458.69999963498 L 35.8,1455.69999963498 L 38.8,1455.69999963498 L 38.8,1454.39999963498 L 41.0,1454.39999963498 L 41.0,1455.69999963498 L 43.0,1455.69999963498 L 43.0,1402.69999963498 L 46.0,1402.69999963498 L 46.0,1382.69999963498 L 43.0,1382.69999963498 L 43.0,1372.69999963498 L 41.0,1372.69999963498 L 41.0,1373.99999963498 L 38.8,1373.99999963498 L 38.8,1372.69999963498 L 35.8,1372.69999963498 L 35.8,1369.69999963498 L 38.8,1369.69999963498 L 38.8,1368.39999963498 L 41.0,1368.39999963498 L 41.0,1369.69999963498 L 43.0,1369.69999963498 M 23.0,1545.69999963498 L 23.0,1542.69999963498 L 33.0,1542.69999963498 L 33.0,1545.69999963498 L 23.0,1545.69999963498 M 23.0,1349.69999963498 L 23.0,1346.69999963498 L 33.0,1346.69999963498 L 33.0,1349.69999963498 L 23.0,1349.69999963498 M 23.0000000000007,1445.69999963498 L 23.0000000000007,1442.69999963498 L 33.0,1442.69999963498 L 33.0,1445.69999963498 L 23.0000000000007,1445.69999963498 "
  />
  <path id="face19-cut"
 style="fill:none;stroke:#000000;stroke-width:1;stroke-miterlimit:4;stroke-dasharray:none;stroke-linejoin:round;stroke-linecap:round"
        d="M 152.0,1558.69999963498 L 10.0,1558.69999963498 L 10.0,1763.69999963498 L 152.0,1763.69999963498 L 152.0,1558.69999963498 M 136.0,1564.69999963498 L 116.0,1564.69999963498 L 116.0,1561.69999963498 L 136.0,1561.69999963498 L 136.0,1564.69999963498 M 146.0,1597.69999963498 L 149.0,1597.69999963498 L 149.0,1617.69999963498 L 146.0,1617.69999963498 L 146.0,1597.69999963498 M 26.0,1561.69999963498 L 46.0,1561.69999963498 L 46.0,1564.69999963498 L 26.0,1564.69999963498 L 26.0,1561.69999963498 M 13.0,1617.69999963498 L 13.0,1597.69999963498 L 16.0,1597.69999963498 L 16.0,1617.69999963498 L 13.0,1617.69999963498 M 13.0,1733.69999963498 L 13.0,1713.69999963498 L 16.0,1713.69999963498 L 16.0,1733.69999963498 L 13.0,1733.69999963498 M 56.0,1760.69999963498 L 56.0,1757.69999963498 L 76.0,1757.69999963498 L 76.0,1760.69999963498 L 56.0,1760.69999963498 M 116.0,1757.69999963498 L 116.0,1760.69999963498 L 96.0,1760.69999963498 L 96.0,1757.69999963498 L 116.0,1757.69999963498 M 126.0,1660.69999963498 L 126.0,1657.69999963498 L 136.0,1657.69999963498 L 136.0,1660.69999963498 L 126.0,1660.69999963498 M 76.0000000000002,1660.69999963498 L 76.0,1657.69999963498 L 86.0,1657.69999963498 L 86.0,1660.69999963498 L 76.0000000000002,1660.69999963498 M 36.0,1657.69999963498 L 36.0,1660.69999963498 L 26.0,1660.69999963498 L 26.0000000000002,1657.69999963498 L 36.0,1657.69999963498 M 109.900000061635,1684.69999963498 L 122.099999938366,1684.69999963498 L 122.099999938366,1696.89999951171 L 109.900000061635,1696.89999951171 L 109.900000061635,1684.69999963498 M 122.099999938366,1699.89999951171 L 125.099999938366,1699.89999951171 L 125.099999938366,1709.89999951171 L 122.099999938366,1709.89999951171 L 122.099999938366,1699.89999951171 M 109.900000061635,1709.89999963498 L 106.900000061635,1709.89999963498 L 106.900000061635,1699.89999963498 L 109.900000061635,1699.89999963498 L 109.900000061635,1709.89999963498 M 79.5511112605664,1563.58822820264 L 79.5,1563.19999963498 L 79.5511112605664,1562.81177106733 L 79.7009618943234,1562.44999963498 L 79.93933982822,1562.1393394632 L 80.25,1561.90096152931 L 80.6117714323461,1561.75111089555 L 81.0,1561.69999963498 L 81.3882285676539,1561.75111089555 L 81.75,1561.90096152931 L 82.06066017178,1562.1393394632 L 82.2990381056766,1562.44999963498 L 82.4488887394336,1562.81177106733 L 82.5,1563.19999963498 L 82.4488887394336,1563.58822820264 L 82.2990381056766,1563.94999963498 L 82.06066017178,1564.26065980676 L 81.75,1564.49903774066 L 81.3882285676539,1564.64888837442 L 81.0,1564.69999963498 L 80.6117714323461,1564.64888837442 L 80.25,1564.49903774066 L 79.93933982822,1564.26065980676 L 79.7009618943234,1563.94999963498 L 79.5511112605664,1563.58822820264 M 147.888228567637,1587.64888837442 L 147.499999999983,1587.69999963498 L 147.11177143233,1587.64888837442 L 146.749999999983,1587.49903774066 L 146.439339828203,1587.26065980676 L 146.200961894307,1586.94999963498 L 146.05111126055,1586.58822820264 L 145.999999999983,1586.19999963498 L 146.05111126055,1585.81177106733 L 146.200961894307,1585.44999963498 L 146.439339828203,1585.1393394632 L 146.749999999983,1584.90096152931 L 147.11177143233,1584.75111089555 L 147.499999999983,1584.69999963498 L 147.888228567637,1584.75111089555 L 148.249999999983,1584.90096152931 L 148.560660171763,1585.1393394632 L 148.79903810566,1585.44999963498 L 148.948888739417,1585.81177106733 L 148.999999999983,1586.19999963498 L 148.948888739417,1586.58822820264 L 148.79903810566,1586.94999963498 L 148.560660171763,1587.26065980676 L 148.249999999983,1587.49903774066 L 147.888228567637,1587.64888837442 M 147.888228567654,1746.64888837442 L 147.5,1746.69999963498 L 147.111771432346,1746.64888837442 L 146.75,1746.49903774066 L 146.43933982822,1746.26065980676 L 146.200961894323,1745.94999963498 L 146.051111260566,1745.58822820264 L 146.0,1745.19999963498 L 146.051111260566,1744.81177106733 L 146.200961894323,1744.44999963498 L 146.43933982822,1744.1393394632 L 146.75,1743.90096152931 L 147.111771432346,1743.75111089555 L 147.5,1743.69999963498 L 147.888228567654,1743.75111089555 L 148.25,1743.90096152931 L 148.56066017178,1744.1393394632 L 148.799038105677,1744.44999963498 L 148.948888739434,1744.81177106733 L 149.0,1745.19999963498 L 148.948888739434,1745.58822820264 L 148.799038105677,1745.94999963498 L 148.56066017178,1746.26065980676 L 148.25,1746.49903774066 L 147.888228567654,1746.64888837442 M 133.051111260566,1759.58822820264 L 133.0,1759.19999963498 L 133.051111260566,1758.81177106733 L 133.200961894323,1758.44999963498 L 133.43933982822,1758.1393394632 L 133.75,1757.90096152931 L 134.111771432346,1757.75111089555 L 134.5,1757.69999963498 L 134.888228567654,1757.75111089555 L 135.25,1757.90096152931 L 135.56066017178,1758.1393394632 L 135.799038105677,1758.44999963498 L 135.948888739434,1758.81177106733 L 136.0,1759.19999963498 L 135.948888739434,1759.58822820264 L 135.799038105677,1759.94999963498 L 135.56066017178,1760.26065980676 L 135.25,1760.49903774066 L 134.888228567654,1760.64888837442 L 134.5,1760.69999963498 L 134.111771432346,1760.64888837442 L 133.75,1760.49903774066 L 133.43933982822,1760.26065980676 L 133.200961894323,1759.94999963498 L 133.051111260566,1759.58822820264 M 14.1117714323464,1743.75111089555 L 14.5,1743.69999963498 L 14.8882285676539,1743.75111089555 L 15.25,1743.90096152931 L 15.5606601717798,1744.1393394632 L 15.7990381056766,1744.44999963498 L 15.9488887394336,1744.81177106733 L 16.0,1745.19999963498 L 15.9488887394336,1745.58822820264 L 15.7990381056766,1745.94999963498 L 15.5606601717798,1746.26065980676 L 15.25,1746.49903774066 L 14.8882285676539,1746.64888837442 L 14.5,1746.69999963498 L 14.1117714323464,1746.64888837442 L 13.75,1746.49903774066 L 13.4393398282202,1746.26065980676 L 13.2009618943232,1745.94999963498 L 13.0511112605664,1745.58822820264 L 13.0,1745.19999963498 L 13.0511112605664,1744.81177106733 L 13.2009618943232,1744.44999963498 L 13.4393398282202,1744.1393394632 L 13.75,1743.90096152931 L 14.1117714323464,1743.75111089555 M 14.8882285676539,1673.64888837442 L 14.5,1673.69999963498 L 14.1117714323461,1673.64888837442 L 13.75,1673.49903774066 L 13.4393398282202,1673.26065980676 L 13.2009618943232,1672.94999963498 L 13.0511112605664,1672.58822820264 L 13.0,1672.19999963498 L 13.0511112605664,1671.81177106733 L 13.2009618943232,1671.44999963498 L 13.4393398282202,1671.1393394632 L 13.75,1670.90096152931 L 14.1117714323464,1670.75111089555 L 14.5,1670.69999963498 L 14.8882285676539,1670.75111089555 L 15.25,1670.90096152931 L 15.5606601717798,1671.1393394632 L 15.7990381056766,1671.44999963498 L 15.9488887394336,1671.81177106733 L 16.0,1672.19999963498 L 15.9488887394336,1672.58822820264 L 15.7990381056766,1672.94999963498 L 15.5606601717798,1673.26065980676 L 15.25,1673.49903774066 L 14.8882285676539,1673.64888837442 M 14.8882285676539,1587.06189801812 L 14.5,1587.11300927868 L 14.1117714323461,1587.06189801812 L 13.75,1586.91204738436 L 13.4393398282202,1586.67366945046 L 13.2009618943234,1586.36300927868 L 13.0511112605666,1586.00123784634 L 13.0,1585.61300927868 L 13.0511112605666,1585.22478071103 L 13.2009618943234,1584.86300927868 L 13.4393398282202,1584.5523491069 L 13.75,1584.31397117301 L 14.1117714323464,1584.16412053925 L 14.5,1584.11300927868 L 14.8882285676539,1584.16412053925 L 15.25,1584.31397117301 L 15.5606601717798,1584.5523491069 L 15.7990381056766,1584.86300927868 L 15.9488887394336,1585.22478071103 L 16.0,1585.61300927868 L 15.9488887394336,1586.00123784634 L 15.7990381056766,1586.36300927868 L 15.56066017178,1586.67366945046 L 15.25,1586.91204738436 L 14.8882285676539,1587.06189801812 M 142.099999938366,1688.39999951171 L 142.488228506019,1688.45111077228 L 142.849999938366,1688.60096140604 L 143.160660110145,1688.83933933993 L 143.399038044042,1689.14999951171 L 143.548888677799,1689.51177094406 L 143.599999938366,1689.89999951171 L 143.548888677799,1690.28822807937 L 143.399038044042,1690.64999951171 L 143.160660110146,1690.96065968349 L 142.849999938366,1691.19903761739 L 142.488228506019,1691.34888825115 L 142.099999938366,1691.39999951171 L 141.711771370712,1691.34888825115 L 141.349999938366,1691.19903761739 L 141.039339766586,1690.96065968349 L 140.800961832689,1690.64999951171 L 140.651111198932,1690.28822807937 L 140.599999938366,1689.89999951171 L 140.651111198932,1689.51177094406 L 140.800961832689,1689.14999951171 L 141.039339766586,1688.83933933993 L 141.349999938366,1688.60096140604 L 141.711771370712,1688.45111077228 L 142.099999938366,1688.39999951171 M 89.0999999383655,1688.39999951171 L 89.4882285060194,1688.45111077228 L 89.8499999383657,1688.60096140604 L 90.1606601101455,1688.83933933993 L 90.3990380440423,1689.14999951171 L 90.5488886777991,1689.51177094406 L 90.5999999383657,1689.89999951171 L 90.5488886777991,1690.28822807937 L 90.3990380440423,1690.64999951171 L 90.1606601101455,1690.96065968349 L 89.8499999383657,1691.19903761739 L 89.4882285060194,1691.34888825115 L 89.0999999383655,1691.39999951171 L 88.7117713707116,1691.34888825115 L 88.3499999383655,1691.19903761739 L 88.0393397665857,1690.96065968349 L 87.8009618326889,1690.64999951171 L 87.6511111989319,1690.28822807937 L 87.5999999383655,1689.89999951171 L 87.6511111989319,1689.51177094406 L 87.8009618326889,1689.14999951171 L 88.0393397665857,1688.83933933993 L 88.3499999383655,1688.60096140604 L 88.7117713707116,1688.45111077228 L 89.0999999383655,1688.39999951171 M 146.0,1713.69999963498 L 149.0,1713.69999963498 L 149.0,1733.69999963498 L 146.0,1733.69999963498 L 146.0,1713.69999963498 M 88.2255904614519,1567.44540554578 L 90.3469108050119,1569.56672588934 L 83.2758429931475,1576.6377937012 L 81.1545226495875,1574.51647335764 L 88.2255904614519,1567.44540554578 M 50.0418242773833,1605.62917172986 L 52.1631446209431,1607.75049207342 L 45.0920768090787,1614.82155988528 L 42.9707564655189,1612.70023954172 L 50.0418242773833,1605.62917172986 "
  />
  <path id="face20-cut"
 style="fill:none;stroke:#000000;stroke-width:1;stroke-miterlimit:4;stroke-dasharray:none;stroke-linejoin:round;stroke-linecap:round"
        d="M 19.0000007272472,1773.69999963498 L 10.0000024602509,1773.69999963498 L 10.0,1795.8999995143 L 19.0,1795.9000001009 L 19.0000001955339,1792.9000001009 L 22.0000001955339,1792.90000014979 L 22.0000007277395,1795.90000046847 L 34.2000000517121,1795.9000002715 L 34.2000000722651,1792.90000004966 L 37.2000000722649,1792.90000006299 L 37.2000000117484,1795.90000006299 L 46.2000001350173,1795.90000024454 L 46.2000007876218,1773.69999963498 L 37.2000002575655,1773.69999963498 L 37.2000000722649,1776.69999975072 L 34.2000000722651,1776.69999967687 L 34.2000000360094,1773.69999963498 L 22.0000001592782,1773.69999963498 L 22.0000001955339,1776.69999982431 L 19.0000001955339,1776.69999963498 L 19.0000007272472,1773.69999963498 M 42.6488890333271,1782.91177159842 L 42.7000002819213,1783.30000016765 L 42.6488890093829,1783.68822873372 L 42.4990383644697,1784.05000016145 L 42.2606604209927,1784.36066032588 L 41.9500002418617,1784.59903825019 L 41.5882288048945,1784.74888887279 L 41.2000002356644,1784.80000012139 L 40.8117716695867,1784.74888884885 L 40.4500002418617,1784.59903820394 L 40.1393400774332,1784.36066026046 L 39.9009621531163,1784.05000008133 L 39.7511115305156,1783.68822864436 L 39.7000002819213,1783.30000007513 L 39.7511115544598,1782.91177150905 L 39.900962199373,1782.55000008133 L 40.13934014285,1782.2393399169 L 40.450000321981,1782.00096199258 L 40.8117717589482,1781.85111136998 L 41.200000328178,1781.80000012139 L 41.5882288942557,1781.85111139393 L 41.950000321981,1782.00096203884 L 42.2606604864097,1782.23933998232 L 42.4990384107264,1782.55000016145 L 42.6488890333271,1782.91177159842 M 13.5511125884589,1783.68822736014 L 13.5000013278925,1783.29999879248 L 13.5511125884589,1782.91177022483 L 13.7009632222159,1782.54999879248 L 13.9393411561127,1782.2393386207 L 14.2500013278925,1782.00096068681 L 14.6117727602386,1781.85111005305 L 15.0000013278925,1781.79999879248 L 15.3882298955464,1781.85111005305 L 15.7500013278925,1782.00096068681 L 16.0606614996723,1782.2393386207 L 16.2990394335691,1782.54999879248 L 16.4488900673261,1782.91177022483 L 16.5000013278925,1783.29999879248 L 16.4488900673261,1783.68822736014 L 16.2990394335691,1784.04999879248 L 16.0606614996723,1784.36065896426 L 15.7500013278925,1784.59903689816 L 15.3882298955464,1784.74888753192 L 15.0000013278925,1784.79999879248 L 14.6117727602386,1784.74888753192 L 14.2500013278925,1784.59903689816 L 13.9393411561127,1784.36065896426 L 13.7009632222159,1784.04999879248 L 13.5511125884589,1783.68822736014 M 34.1000000734734,1790.80000012248 L 22.0000001955341,1790.80000012248 L 22.0000001955341,1778.70000024453 L 34.1000000734734,1778.70000024453 L 34.1000000734734,1790.80000012248 "
  />
</svg>
